<svg xmlns="http://www.w3.org/2000/svg" width="1200" height="308" viewBox="0 0 1200 308" version="1.1"><path d="M 125.500 29.058 C 115.576 30.397, 99.991 34.526, 91.633 38.031 C 80.603 42.656, 80.846 42.247, 86.004 47.512 C 96.323 58.045, 105.618 61.897, 131.746 66.470 C 192.496 77.102, 225.686 94.709, 264.320 136.801 C 269.721 142.686, 274.496 147.629, 274.932 147.787 C 275.858 148.123, 273.914 136.303, 271.534 127.127 C 262.473 92.187, 236.443 60.163, 203.375 43.269 C 190.817 36.853, 181.598 33.570, 168.734 30.933 C 156.989 28.526, 136.145 27.621, 125.500 29.058 M 143.500 131.957 C 128.889 134.577, 123.493 136.102, 92 146.508 C 76.027 151.786, 59.324 156.653, 54 157.580 C 38.748 160.235, 22.172 158.713, 9.750 153.518 C 8.152 152.850, 8 153.642, 8.004 162.643 C 8.011 178.979, 12.419 200.222, 18.725 214.308 C 25.215 228.806, 40.636 234.437, 58.645 228.887 C 67.342 226.207, 69.733 224.973, 91 212.181 C 123.023 192.921, 139.451 185.212, 159.611 179.986 C 189.466 172.248, 222.031 174.704, 263.694 187.836 C 270.002 189.824, 273.025 190.377, 273.325 189.596 C 273.565 188.970, 274.331 184.290, 275.027 179.196 C 276.513 168.323, 278.223 170.555, 260 159.590 C 235.673 144.953, 211.277 135.048, 191.074 131.606 C 178.439 129.453, 156.560 129.615, 143.500 131.957" stroke="none" fill="#1c93bc" fill-rule="evenodd"/><path d="M 834.692 33.508 C 816.647 36.410, 801.709 38.957, 801.496 39.170 C 801.284 39.383, 800.690 41.422, 800.178 43.702 L 799.247 47.847 812.373 55.264 L 825.500 62.680 825.755 164.718 L 826.009 266.755 814.255 271.563 C 807.790 274.207, 802.337 276.488, 802.137 276.632 C 801.714 276.935, 799.087 288.901, 799.035 290.760 C 799.007 291.759, 808.869 291.966, 846.750 291.760 L 894.500 291.500 896.101 285 C 896.981 281.425, 897.431 278.231, 897.101 277.902 C 896.770 277.573, 890.538 275.107, 883.250 272.421 L 870 267.537 870 147.769 C 870 52.558, 869.744 28.024, 868.750 28.117 C 868.063 28.181, 852.736 30.607, 834.692 33.508 M 944.701 33.462 C 926.661 36.342, 911.528 39.104, 911.072 39.599 C 910.616 40.095, 909.950 42.150, 909.592 44.167 L 908.940 47.834 921.980 55.264 L 935.019 62.694 935.259 164.782 L 935.500 266.869 923.500 271.759 L 911.500 276.650 910.346 281.575 C 909.711 284.284, 909.149 287.738, 909.096 289.250 L 909 292 956.453 292 L 1003.906 292 1004.962 288.250 C 1005.542 286.188, 1006.266 282.925, 1006.570 281 L 1007.122 277.500 993.524 272.500 L 979.927 267.500 979.713 148.083 C 979.573 69.460, 979.158 28.591, 978.500 28.446 C 977.950 28.325, 962.740 30.582, 944.701 33.462 M 400.655 45.750 C 398.892 52.175, 397.878 58.212, 398.461 58.804 C 398.839 59.187, 406.202 62.034, 414.824 65.132 L 430.500 70.764 430.742 167.632 L 430.983 264.500 415.742 270.016 L 400.500 275.532 399.298 280.388 C 398.636 283.058, 397.961 286.651, 397.798 288.372 L 397.500 291.500 439.500 291.797 C 527.140 292.417, 557.412 288.447, 580.208 273.346 C 588.674 267.738, 594.120 261.568, 598.547 252.570 C 603.007 243.505, 604.964 234.042, 604.971 221.500 C 604.980 203.882, 600.864 193.874, 588.503 181.467 C 582.625 175.567, 578.375 172.341, 572.500 169.320 C 563.526 164.704, 550.840 160.446, 542.945 159.398 L 537.691 158.701 544.096 156.987 C 580.706 147.186, 599.350 120.912, 592.531 88.730 C 589.423 74.063, 580.701 63.499, 565.567 56.069 C 545.763 46.347, 523.287 44.025, 448.817 44.010 C 404.250 44.001, 401.103 44.114, 400.655 45.750 M 478.500 167.576 L 478.500 276.152 483 275.506 C 492.657 274.121, 507.915 270.671, 516.530 267.925 C 539.144 260.718, 552.902 246.420, 554.860 228.092 C 556.395 213.727, 553.305 201.224, 545.915 191.892 C 538.696 182.778, 520.852 172.916, 501.778 167.499 L 496.056 165.874 496.653 161.187 C 496.981 158.609, 497.756 156.008, 498.375 155.407 C 498.994 154.805, 502.425 153.297, 506 152.054 C 532.571 142.818, 547.274 123.753, 545.780 100.472 C 544.637 82.667, 533.360 71.718, 508.880 64.645 C 501.139 62.409, 483.744 59, 480.074 59 C 478.652 59, 478.500 69.468, 478.500 167.576 M 48.870 66.250 C 36.969 77.825, 27.967 90.508, 20.498 106.226 C 16.382 114.888, 16.248 115.449, 17.756 117.750 C 20.215 121.503, 27.605 126.699, 33.318 128.692 C 37.364 130.104, 41.351 130.479, 51.500 130.404 C 62.822 130.320, 66.887 129.779, 83 126.213 C 131.371 115.505, 157.353 113.913, 185.055 119.959 C 209.687 125.335, 236.073 138.365, 264.281 159.082 C 270.211 163.437, 275.274 167, 275.531 167 C 275.789 167, 276 163.903, 276 160.118 L 276 153.236 266.471 144.127 C 248.008 126.476, 227.660 111.706, 210.500 103.500 C 186.080 91.821, 164.730 87.338, 122.500 85.020 C 103.961 84.002, 93.442 81.937, 81.998 77.067 C 74.902 74.048, 60.134 65.072, 57.969 62.462 C 56.010 60.103, 54.578 60.699, 48.870 66.250 M 704 117.693 C 685.440 120.813, 669.198 129.617, 655.941 143.745 C 638.533 162.296, 630.071 186.972, 631.337 215.500 C 633.060 254.366, 650.699 280.854, 681.932 291.477 C 712.321 301.813, 746.101 293.713, 771.271 270.055 L 777.449 264.249 775.488 260.608 C 774.410 258.606, 773.016 257.164, 772.391 257.403 C 769.088 258.671, 756.344 262.178, 748 264.115 C 741.215 265.691, 735.071 266.347, 726.500 266.411 C 715.023 266.496, 714.217 266.364, 708 263.374 C 704.425 261.655, 699.555 258.555, 697.178 256.485 C 687.459 248.021, 678.850 231.926, 675.485 215.927 C 674.668 212.045, 674 208.690, 674 208.470 C 674 208.251, 696.228 207.943, 723.396 207.786 C 780.186 207.457, 775.318 208.386, 779.207 197.134 C 781.157 191.493, 781.500 188.479, 781.500 177 C 781.500 165.489, 781.159 162.514, 779.188 156.810 C 772.579 137.681, 755.915 123.171, 735.303 118.597 C 728.620 117.114, 710.548 116.592, 704 117.693 M 1091.364 118.493 C 1059.635 125.394, 1033.420 154.226, 1025.894 190.500 C 1023.329 202.859, 1023.365 222.281, 1025.976 235 C 1028.298 246.310, 1034.556 259.628, 1041.717 268.500 C 1055.056 285.028, 1076.572 294.569, 1103 295.677 C 1127.800 296.716, 1144.698 290.142, 1162.571 272.500 C 1181.615 253.703, 1192 228.550, 1192 201.224 C 1192 156.064, 1166.645 124.583, 1125 118.037 C 1116.116 116.640, 1098.805 116.875, 1091.364 118.493 M 689 142.694 C 682.319 146.142, 675.850 164.091, 674.376 183.275 C 673.993 188.253, 674.090 192.015, 674.602 192.035 C 678.596 192.188, 741.716 185.496, 742.453 184.841 C 744 183.466, 741.265 170.340, 738.009 163.520 C 734.374 155.903, 726.167 147.891, 718.253 144.233 C 710.575 140.684, 694.530 139.840, 689 142.694 M 1087.147 143.015 C 1084.752 143.519, 1080.847 145.072, 1078.469 146.466 C 1073.136 149.590, 1070.640 155.499, 1068.346 170.430 C 1066.351 183.413, 1067.095 206.743, 1069.899 219.107 C 1076.583 248.588, 1092.234 267.065, 1113.008 270.001 C 1124.254 271.591, 1138.051 267.904, 1141.700 262.335 C 1144.293 258.378, 1146.931 247.294, 1148.156 235.217 C 1150.305 214.022, 1146.589 190.149, 1138.557 173.544 C 1131.401 158.748, 1122.263 149.487, 1110.465 145.073 C 1104.009 142.657, 1093.325 141.714, 1087.147 143.015 M 188 184.585 C 168.833 187.651, 149.035 196.016, 129.010 209.509 C 123.780 213.034, 111.441 222.190, 101.591 229.856 C 80.478 246.288, 71.160 252.136, 59.847 256.053 C 55.268 257.639, 51.428 259.288, 51.313 259.718 C 50.736 261.883, 72.151 277.017, 83.705 282.609 C 102.695 291.800, 118.712 295.391, 141 295.454 C 156.155 295.496, 173.018 293.733, 172.989 292.109 C 172.984 291.774, 162.988 285.662, 150.777 278.526 C 130.449 266.648, 128.154 265.550, 123.586 265.526 C 119.231 265.503, 118.405 265.159, 117.082 262.818 C 115.099 259.311, 116.533 254.991, 120.273 253.198 C 124.107 251.360, 128.171 253.384, 129.463 257.773 C 130.331 260.723, 132.890 262.489, 155.369 275.657 L 180.311 290.267 185.906 288.522 C 192.972 286.318, 205.760 280.215, 213.309 275.443 C 218.535 272.140, 218.937 271.651, 217.309 270.567 C 216.314 269.905, 208.075 265.058, 199 259.797 C 184.252 251.246, 182.097 250.284, 178.705 250.730 C 173.893 251.363, 171 249.024, 171 244.500 C 171 236.280, 181.846 235.118, 184.517 243.051 C 185.468 245.876, 188.053 247.741, 204.057 257.148 C 214.201 263.111, 223.096 267.992, 223.824 267.995 C 225.253 268, 248 245.706, 248 244.301 C 248 243.834, 235.738 236.220, 220.750 227.380 C 199.024 214.565, 193.126 211.496, 191.657 212.238 C 187.305 214.438, 182 210.729, 182 205.485 C 182 199.175, 189.969 196.603, 193.927 201.635 C 195.067 203.084, 196.013 204.997, 196.028 205.885 C 196.046 206.929, 205.421 212.978, 222.555 223 C 237.130 231.525, 249.670 238.636, 250.423 238.803 C 252.048 239.163, 259.560 227.452, 264.034 217.586 C 266.525 212.092, 273 193.966, 273 192.486 C 273 191.935, 251.173 187.118, 241 185.425 C 227.219 183.132, 199.803 182.697, 188 184.585 M 186.362 204.500 C 185.569 206.564, 186.644 209, 188.346 209 C 189.121 209, 190.315 208.325, 191 207.500 C 191.993 206.303, 191.993 205.697, 191 204.500 C 190.315 203.675, 189.121 203, 188.346 203 C 187.571 203, 186.678 203.675, 186.362 204.500 M 175 244.393 C 175 247.329, 177.417 248.440, 179.429 246.429 C 181.440 244.417, 180.329 242, 177.393 242 C 175.536 242, 175 242.536, 175 244.393 M 121.011 257.487 C 119.349 259.489, 120.456 262, 123 262 C 124.135 262, 125.324 261.319, 125.643 260.487 C 126.218 258.990, 124.457 256, 123 256 C 122.585 256, 121.689 256.669, 121.011 257.487" stroke="none" fill="#eb8b3c" fill-rule="evenodd"/></svg>